<svg xmlns="http://www.w3.org/2000/svg" width="18" height="13.261" viewBox="0 0 18 13.261">
  <g id="email" transform="translate(0 -57.088)">
    <g id="Group_125" data-name="Group 125" transform="translate(0 60.828)">
      <g id="Group_124" data-name="Group 124" transform="translate(0 0)">
        <path id="Path_5544" data-name="Path 5544" d="M9.521,152.364a1.023,1.023,0,0,1-1.063,0L0,147.2v6.864a2.657,2.657,0,0,0,2.656,2.656H15.344A2.657,2.657,0,0,0,18,154.064V147.2Z" transform="translate(0 -147.2)" fill="#f1b74d"/>
      </g>
    </g>
    <g id="Group_127" data-name="Group 127" transform="translate(0.085 57.088)">
      <g id="Group_126" data-name="Group 126" transform="translate(0 0)">
        <path id="Path_5545" data-name="Path 5545" d="M17.307,57.088H4.619a2.641,2.641,0,0,0-2.571,2.083l8.926,5.44,8.9-5.44A2.641,2.641,0,0,0,17.307,57.088Z" transform="translate(-2.048 -57.088)" fill="#f1b74d"/>
      </g>
    </g>
  </g>
</svg>
