<svg xmlns="http://www.w3.org/2000/svg" width="15.128" height="22" viewBox="0 0 15.128 22">
  <g id="map" transform="translate(-79.968 0.001)">
    <path id="Path_5546" data-name="Path 5546" d="M94.045,3.767A7.466,7.466,0,0,0,87.7,0c-.113,0-.226,0-.339,0a7.466,7.466,0,0,0-6.344,3.766,7.659,7.659,0,0,0-.1,7.568l5.455,9.985.007.013a1.326,1.326,0,0,0,2.3,0l.007-.013,5.455-9.985a7.659,7.659,0,0,0-.1-7.568Zm-6.513,6.2a3.094,3.094,0,1,1,3.094-3.094A3.1,3.1,0,0,1,87.531,9.968Z" transform="translate(0)" fill="#f1b74d"/>
  </g>
</svg>
